<svg width="37" height="37" xmlns="http://www.w3.org/2000/svg" xml:space="preserve" version="1.1">

 <g>
  <title>Layer 1</title>
  <g transform="matrix(0.16468566,0,0,0.16468566,-13.267079,-13.420239)" id="g2">
   <path fill="#FFFFFF" d="m140.8,257c-6,0 -11.7,-1.1 -16.9,-3.5c-5.4,-2.3 -10,-5.5 -13.9,-9.4c-3.9,-3.9 -7,-8.6 -9.4,-13.9c-2.3,-5.4 -3.5,-11 -3.5,-17c0,-6.1 1.1,-11.7 3.5,-17.1c2.3,-5.4 5.5,-10.1 9.4,-14s8.6,-7 13.9,-9.4c5.4,-2.3 11,-3.5 16.9,-3.5c6,0 11.7,1.1 17.1,3.5c5.4,2.3 10.1,5.5 14,9.4c3.9,3.9 7,8.6 9.4,14c2.3,5.4 3.5,11.1 3.5,17.1c0,6 -1.1,11.7 -3.5,17c-2.3,5.4 -5.5,10 -9.4,13.9c-3.9,3.9 -8.6,7 -14,9.4c-5.4,2.3 -11.1,3.5 -17.1,3.5zm0,-68.6c-3.5,0 -6.7,0.7 -9.6,2c-2.9,1.3 -5.5,3.1 -7.8,5.4c-2.3,2.3 -4,4.9 -5.4,8c-1.3,3 -2,6.3 -2,9.7c0,3.5 0.7,6.7 2,9.6s3.1,5.5 5.4,7.8c2.3,2.3 4.9,4 7.8,5.4c2.9,1.3 6.1,2 9.6,2c3.4,0 6.7,-0.7 9.7,-2c3,-1.3 5.7,-3.1 8,-5.4c2.3,-2.3 4,-4.9 5.4,-7.8c1.3,-3 2,-6.2 2,-9.6c0,-3.5 -0.7,-6.7 -2,-9.7c-1.3,-3 -3.1,-5.7 -5.4,-8c-2.3,-2.3 -4.9,-4 -8,-5.4c-3.1,-1.5 -6.3,-2 -9.7,-2z" class="st1" id="path1"/>
   <path fill="#FFFFFF" d="m245.3,257c-6,0 -11.7,-1.1 -16.9,-3.5c-5.4,-2.3 -10,-5.5 -13.9,-9.4s-7,-8.6 -9.4,-13.9c-2.3,-5.4 -3.5,-11 -3.5,-17c0,-6.1 1.1,-11.7 3.5,-17.1c2.3,-5.4 5.5,-10.1 9.4,-14s8.6,-7 13.9,-9.4c5.4,-2.3 11,-3.5 16.9,-3.5c6,0 11.7,1.1 17.1,3.5c5.4,2.3 10.1,5.5 14,9.4c3.9,3.9 7,8.6 9.4,14c2.3,5.4 3.5,11.1 3.5,17.1c0,6 -1.1,11.7 -3.5,17c-2.3,5.4 -5.5,10 -9.4,13.9c-3.9,3.9 -8.6,7 -14,9.4c-5.3,2.3 -11,3.5 -17.1,3.5zm0,-68.6c-3.5,0 -6.7,0.7 -9.6,2s-5.5,3.1 -7.8,5.4s-4,4.9 -5.4,8c-1.3,3 -2,6.3 -2,9.7c0,3.5 0.7,6.7 2,9.6s3.1,5.5 5.4,7.8c2.3,2.3 4.9,4 7.8,5.4s6.1,2 9.6,2c3.4,0 6.7,-0.7 9.7,-2c3,-1.3 5.7,-3.1 8,-5.4s4,-4.9 5.4,-7.8c1.3,-3 2,-6.2 2,-9.6c0,-3.5 -0.7,-6.7 -2,-9.7c-1.3,-3 -3.1,-5.7 -5.4,-8c-2.3,-2.3 -4.9,-4 -8,-5.4c-3,-1.5 -6.2,-2 -9.7,-2z" class="st1" id="path2"/>
   <rect fill="#FFFFFF" height="19.6" width="100.2" class="st1" y="130.5" x="143.2" id="rect2"/>
  </g>
 </g>
</svg>