<svg xmlns="http://www.w3.org/2000/svg" xmlns:xlink="http://www.w3.org/1999/xlink" viewBox="0,0,256,256" width="50px" height="50px" fill-rule="nonzero"><g fill="#ffffff" fill-rule="nonzero" stroke="none" stroke-width="1" stroke-linecap="butt" stroke-linejoin="miter" stroke-miterlimit="10" stroke-dasharray="" stroke-dashoffset="0" font-family="none" font-weight="none" font-size="none" text-anchor="none" style="mix-blend-mode: normal"><g transform="scale(5.12,5.12)"><path d="M33,2c-1.62,0 -4.59094,7.32906 -7.21094,13.78906c-1.75,4.32 -3.40992,8.40047 -4.91992,10.73047c-2.71,4.18 -6.91969,7.00055 -9.17969,8.31055c-0.11,0.06 -0.22008,0.12945 -0.33008,0.18945c0.09,-0.01 0.32992,-0.03906 0.66992,-0.03906c0.85,0 2.51102,0.13859 4.04102,1.05859c4.36,2.61 4.46875,10.40047 4.46875,10.48047c0,0.29 0.14109,0.56977 0.37109,0.75977c0.18,0.15 0.39891,0.23047 0.62891,0.23047c0.06,0 0.13141,-0.00953 0.19141,-0.01953c0.31,-0.06 3.14867,-0.65938 6.13867,-3.60937c1.8,-1.79 3.14008,-3.86141 4.33008,-5.69141c1.66,-2.57 3.10086,-4.77938 5.13086,-5.10937c2.94,-0.45 9.01,4.36969 11,6.17969c0.33,0.3 0.81922,0.34938 1.19922,0.10938c0.38,-0.24 0.55164,-0.69914 0.43164,-1.11914c-1.73,-6.06 -10.67094,-36.25 -16.96094,-36.25zM28.34961,4.83008c-1,1.22 -1.90883,2.69039 -2.79883,4.15039l-0.38086,0.60938c-1.39,2.24 -2.70047,4.35922 -3.98047,5.19922c-0.58,0.37 -1.09914,0.66117 -1.61914,0.95117c-1.01,0.56 -2.04969,1.13977 -3.17969,2.25977c-0.9,0.9 -1.63156,1.78992 -2.10156,2.41992l5.45117,4.08984c1.27,-2.27 2.69945,-5.7807 4.18945,-9.4707c1.77,-4.37 3.16992,-7.75898 4.41992,-10.20898zM12.43945,21.53906l-11.79883,4.56055c-0.35,0.14 -0.59086,0.45031 -0.63086,0.82031c-0.05,0.37 0.11992,0.72945 0.41992,0.93945l8.83008,6.04102c0.47,-0.26 0.94969,-0.52078 1.42969,-0.80078c1.97,-1.14 5.5007,-3.49016 7.9707,-6.91016z"></path></g></g></svg>